<svg width="429.5186767578125px" height="122px" xmlns="http://www.w3.org/2000/svg" viewBox="35.24066162109375 14 429.5186767578125 122" style="background: none;" preserveAspectRatio="xMidYMid"><defs><filter id="editing-vintage" x="-100%" y="-100%" width="300%" height="300%"><feConvolveMatrix in="SourceGraphic" result="extrude" order="9,9" divisor="1" kernelMatrix="1,0,0,0,0,0,0,0,0,0,1,0,0,0,0,0,0,0,0,0,1,0,0,0,0,0,0,0,0,0,1,0,0,0,0,0,0,0,0,0,1,0,0,0,0,0,0,0,0,0,1,0,0,0,0,0,0,0,0,0,1,0,0,0,0,0,0,0,0,0,1,0,0,0,0,0,0,0,0,0,1"> </feConvolveMatrix><feFlood flood-color="#4ca1a3" result="flood-extrude"></feFlood><feComposite operator="in" in="flood-extrude" in2="extrude" result="extrude-color"></feComposite><feOffset dx="5" dy="5" in="extrude-color" result="extrude-offset"></feOffset><feColorMatrix in="SourceGraphic" result="stroke" type="matrix" values="0 0 0 0 0 0 0 0 0 0 0 0 0 0 0 0 1 0 0 0 "></feColorMatrix><feColorMatrix in="SourceGraphic" result="fill" type="matrix" values="0 0 0 0 0 0 0 0 0 0 0 0 0 0 0 1 0 0 1 0 "></feColorMatrix><feConvolveMatrix in="stroke" result="inner-shadow" order="5,5" divisor="1" kernelMatrix="1 0 0 0 0 0 1 0 0 0 0 0 1 0 0 0 0 0 1 0 0 0 0 0 1 "></feConvolveMatrix><feOffset dx="1" dy="1" in="inner-shadow" result="offset"></feOffset><feComposite operator="in" in="offset" in2="SourceAlpha" result="comp"></feComposite><feFlood flood-color="#9db189" result="flood3"></feFlood><feComposite operator="in" in="flood3" in2="comp" result="comp2"></feComposite><feColorMatrix in="comp2" result="comp3" type="matrix" values="1 0 0 0 0 0 1 0 0 0 0 0 1 0 0 0 0 0 0.5 0 "></feColorMatrix><feFlood flood-color="#21094e" result="flood1"></feFlood><feComposite operator="in" in="flood1" in2="fill" result="fill2"></feComposite><feFlood flood-color="#fff" result="flood2"></feFlood><feComposite operator="in" in="flood2" in2="stroke" result="stroke2"></feComposite><feMerge result="obj"><feMergeNode in="extrude-offset"></feMergeNode><feMergeNode in="fill2"></feMergeNode><feMergeNode in="comp3"></feMergeNode></feMerge><feConvolveMatrix in="SourceAlpha" result="shadow" order="9,9" divisor="1" kernelMatrix="1,0,0,0,0,0,0,0,0,0,1,0,0,0,0,0,0,0,0,0,1,0,0,0,0,0,0,0,0,0,1,0,0,0,0,0,0,0,0,0,1,0,0,0,0,0,0,0,0,0,1,0,0,0,0,0,0,0,0,0,1,0,0,0,0,0,0,0,0,0,1,0,0,0,0,0,0,0,0,0,1"></feConvolveMatrix><feOffset dx="15" dy="15" in="shadow" result="shadow-offset"></feOffset><feFlood flood-color="#000000" result="flood-shadow"></feFlood><feComposite operator="in" in="flood-shadow" in2="shadow-offset" result="shadow-color"></feComposite><feMerge><feMergeNode in="shadow-color"></feMergeNode><feMergeNode in="obj"></feMergeNode></feMerge></filter></defs><g transform="translate(-9,-9)"><g filter="url(#editing-vintage)"><g transform="translate(100.49497616291046, 107.02999877929688)"><path d="M16.45-3.52L16.45-3.52L16.45-3.52Q14.46 1.28 8.13 1.28L8.13 1.28L8.13 1.28Q4.86 1.28 2.82-0.96L2.82-0.96L2.82-0.96Q1.09-2.94 1.09-4.93L1.09-4.93L1.09-4.93Q1.09-10.11 3.46-20.22L3.46-20.22L5.82-32.64L18.82-33.92L14.91-13.70L14.91-13.70Q13.82-8.96 13.82-7.30L13.82-7.30L13.82-7.30Q13.82-3.65 16.45-3.52ZM6.98-41.54L6.98-41.54L6.98-41.54Q6.98-44.03 9.06-45.38L9.06-45.38L9.06-45.38Q11.14-46.72 14.14-46.72L14.14-46.72L14.14-46.72Q17.15-46.72 18.98-45.38L18.98-45.38L18.98-45.38Q20.80-44.03 20.80-41.54L20.80-41.54L20.80-41.54Q20.80-39.04 18.78-37.76L18.78-37.76L18.78-37.76Q16.77-36.48 13.76-36.48L13.76-36.48L13.76-36.48Q10.75-36.48 8.86-37.76L8.86-37.76L8.86-37.76Q6.98-39.04 6.98-41.54ZM35.84 1.28L35.84 1.28L35.84 1.28Q21.76 1.28 21.76-11.97L21.76-11.97L21.76-11.97Q21.76-21.38 26.94-27.46L26.94-27.46L26.94-27.46Q32.45-33.92 41.98-33.92L41.98-33.92L41.98-33.92Q48.90-33.92 52.42-30.72L52.42-30.72L52.42-30.72Q55.94-27.52 55.94-20.80L55.94-20.80L55.94-20.80Q55.94-10.56 50.43-4.61L50.43-4.61L50.43-4.61Q45.06 1.28 35.84 1.28ZM37.50-26.56L37.50-26.56L37.50-26.56Q36.74-24.83 36.13-22.24L36.13-22.24L36.13-22.24Q35.52-19.65 34.75-15.55L34.75-15.55L34.75-15.55Q33.98-11.46 33.98-6.40L33.98-6.40L33.98-6.40Q33.98-4.74 34.53-3.65L34.53-3.65L34.53-3.65Q35.07-2.56 36.54-2.56L36.54-2.56L36.54-2.56Q38.02-2.56 38.94-3.26L38.94-3.26L38.94-3.26Q39.87-3.97 40.58-5.63L40.58-5.63L40.58-5.63Q41.86-8.58 42.88-14.05L42.88-14.05L42.88-14.05Q43.90-19.52 44-21.89L44-21.89L44-21.89Q44.10-24.26 44.10-26.02L44.10-26.02L44.10-26.02Q44.10-27.78 43.58-28.93L43.58-28.93L43.58-28.93Q43.07-30.08 41.63-30.08L41.63-30.08L41.63-30.08Q40.19-30.08 39.23-29.18L39.23-29.18L39.23-29.18Q38.27-28.29 37.50-26.56ZM55.04 9.54L55.04 9.54L55.04 9.54Q55.04 8.38 55.62 6.72L55.62 6.72L76.54-51.07L76.54-51.07Q77.70-51.26 79.97-51.26L79.97-51.26L79.97-51.26Q82.24-51.26 83.62-50.66L83.62-50.66L83.62-50.66Q84.99-50.05 84.99-48.19L84.99-48.19L84.99-48.19Q84.99-46.59 83.97-43.65L83.97-43.65L63.62 12.54L63.62 12.54Q63.10 12.80 60.10 12.80L60.10 12.80L60.10 12.80Q55.04 12.80 55.04 9.54ZM101.25-22.46L101.25-22.46L101.25-22.46Q102.14-24.83 102.14-26.88L102.14-26.88L102.14-26.88Q102.14-30.66 99.07-30.66L99.07-30.66L99.07-30.66Q97.47-30.66 96.16-29.22L96.16-29.22L96.16-29.22Q94.85-27.78 94.85-25.98L94.85-25.98L94.85-25.98Q94.85-24.70 95.87-23.68L95.87-23.68L95.87-23.68Q97.34-22.27 101.12-19.97L101.12-19.97L101.12-19.97Q104.90-17.66 106.34-15.78L106.34-15.78L106.34-15.78Q107.78-13.89 107.78-11.30L107.78-11.30L107.78-11.30Q107.78-8.70 106.53-6.34L106.53-6.34L106.53-6.34Q105.28-3.97 103.04-2.30L103.04-2.30L103.04-2.30Q98.24 1.28 90.56 1.28L90.56 1.28L90.56 1.28Q86.40 1.28 83.20-0.90L83.20-0.90L83.20-0.90Q80-3.01 80-5.50L80-5.50L80-5.50Q80-8 81.82-9.47L81.82-9.47L81.82-9.47Q83.65-10.94 86.34-10.94L86.34-10.94L86.34-10.94Q89.02-10.94 90.69-9.92L90.69-9.92L90.69-9.92Q89.86-7.81 89.86-6.40L89.86-6.40L89.86-6.40Q89.86-2.18 93.44-2.18L93.44-2.18L93.44-2.18Q94.98-2.18 96-3.14L96-3.14L96-3.14Q97.02-4.10 97.02-5.76L97.02-5.76L97.02-5.76Q97.02-9.02 91.52-12.48L91.52-12.48L91.52-12.48Q87.04-15.42 86.02-16.58L86.02-16.58L86.02-16.58Q84.29-18.62 84.29-21.18L84.29-21.18L84.29-21.18Q84.29-23.74 85.50-26.18L85.50-26.18L85.50-26.18Q86.72-28.61 88.96-30.34L88.96-30.34L88.96-30.34Q93.63-33.92 101.76-33.92L101.76-33.92L101.76-33.92Q105.92-33.92 108.38-32.26L108.38-32.26L108.38-32.26Q110.85-30.59 110.85-27.78L110.85-27.78L110.85-27.78Q110.85-24.96 109.15-23.36L109.15-23.36L109.15-23.36Q107.46-21.76 104.38-21.76L104.38-21.76L104.38-21.76Q102.27-21.76 101.25-22.46ZM114.24-6.40L114.24-6.40L114.24-6.40Q114.24-8.13 115.14-12.48L115.14-12.48L118.53-29.76L114.75-29.76L115.01-31.68L115.01-31.68Q122.69-33.98 130.11-39.62L130.11-39.62L133.18-39.62L131.65-32.64L136.64-32.64L136.06-29.76L131.14-29.76L127.87-12.48L127.87-12.48Q127.04-8.51 127.04-7.17L127.04-7.17L127.04-7.17Q127.04-4.10 129.73-3.46L129.73-3.46L129.73-3.46Q129.09-1.28 126.78 0L126.78 0L126.78 0Q124.48 1.28 121.22 1.28L121.22 1.28L121.22 1.28Q117.95 1.28 116.10-0.77L116.10-0.77L116.10-0.77Q114.24-2.82 114.24-6.40ZM156.35-17.98L156.35-17.98L156.35-17.98Q158.66-22.08 158.66-26.24L158.66-26.24L158.66-26.24Q158.66-28.99 156.67-28.99L156.67-28.99L156.67-28.99Q155.14-28.99 153.54-26.37L153.54-26.37L153.54-26.37Q151.87-23.74 151.36-20.35L151.36-20.35L148.03 0L134.78 1.28L141.31-32.64L151.87-33.92L150.72-27.46L150.72-27.46Q153.86-33.92 160.90-33.92L160.90-33.92L160.90-33.92Q164.61-33.92 166.62-32L166.62-32L166.62-32Q168.64-30.08 168.64-26.14L168.64-26.14L168.64-26.14Q168.64-22.21 166.05-19.71L166.05-19.71L166.05-19.71Q163.46-17.22 159.04-17.22L159.04-17.22L159.04-17.22Q157.12-17.22 156.35-17.98ZM195.58-10.82L195.58-10.82L195.58-10.82Q197.18-9.73 197.18-7.33L197.18-7.33L197.18-7.33Q197.18-4.93 195.97-3.39L195.97-3.39L195.97-3.39Q194.75-1.86 192.77-0.83L192.77-0.83L192.77-0.83Q188.67 1.28 184.26 1.28L184.26 1.28L184.26 1.28Q179.84 1.28 177.25 0.32L177.25 0.32L177.25 0.32Q174.66-0.64 172.93-2.43L172.93-2.43L172.93-2.43Q169.54-5.82 169.54-12.03L169.54-12.03L169.54-12.03Q169.54-21.70 174.78-27.58L174.78-27.58L174.78-27.58Q180.42-33.92 190.21-33.92L190.21-33.92L190.21-33.92Q196.29-33.92 199.30-31.36L199.30-31.36L199.30-31.36Q201.54-29.44 201.54-26.30L201.54-26.30L201.54-26.30Q201.54-15.04 182.08-15.04L182.08-15.04L182.08-15.04Q181.82-13.38 181.82-11.97L181.82-11.97L181.82-11.97Q181.82-9.02 183.14-7.90L183.14-7.90L183.14-7.90Q184.45-6.78 186.88-6.78L186.88-6.78L186.88-6.78Q189.31-6.78 191.90-7.90L191.90-7.90L191.90-7.90Q194.50-9.02 195.58-10.82ZM182.53-17.79L182.53-17.79L182.53-17.79Q187.07-17.79 189.70-20.61L189.70-20.61L189.70-20.61Q192.32-23.30 192.32-27.58L192.32-27.58L192.32-27.58Q192.32-29.06 191.78-29.86L191.78-29.86L191.78-29.86Q191.23-30.66 190.14-30.66L190.14-30.66L190.14-30.66Q189.06-30.66 188.13-30.24L188.13-30.24L188.13-30.24Q187.20-29.82 186.24-28.42L186.24-28.42L186.24-28.42Q183.87-25.22 182.53-17.79ZM206.50-1.92L206.50-1.92L206.50-1.92Q204.99-3.58 204.32-6.21L204.32-6.21L204.32-6.21Q203.65-8.83 203.65-13.12L203.65-13.12L203.65-13.12Q203.65-17.41 205.12-21.31L205.12-21.31L205.12-21.31Q206.59-25.22 209.28-28.03L209.28-28.03L209.28-28.03Q214.78-33.92 223.87-33.92L223.87-33.92L223.87-33.92Q227.14-33.92 229.50-32.83L229.50-32.83L240.45-33.92L235.71-8.96L235.71-8.96Q235.52-8.19 235.52-6.78L235.52-6.78L235.52-6.78Q235.52-5.38 236.38-4.48L236.38-4.48L236.38-4.48Q237.25-3.58 238.53-3.46L238.53-3.46L238.53-3.46Q237.89-1.28 235.55 0L235.55 0L235.55 0Q233.22 1.28 230.59 1.28L230.59 1.28L230.59 1.28Q227.97 1.28 226.21 0.29L226.21 0.29L226.21 0.29Q224.45-0.70 223.94-2.37L223.94-2.37L223.94-2.37Q222.91-0.77 220.74 0.26L220.74 0.26L220.74 0.26Q218.56 1.28 215.65 1.28L215.65 1.28L215.65 1.28Q212.74 1.28 210.37 0.51L210.37 0.51L210.37 0.51Q208-0.26 206.50-1.92ZM220-27.90L220-27.90L220-27.90Q219.26-26.75 218.62-24.80L218.62-24.80L218.62-24.80Q217.98-22.85 216.93-17.63L216.93-17.63L216.93-17.63Q215.87-12.42 215.87-8.70L215.87-8.70L215.87-8.70Q215.87-4.99 216.45-3.90L216.45-3.90L216.45-3.90Q217.02-2.82 218.05-2.82L218.05-2.82L218.05-2.82Q220.10-2.82 221.60-4.77L221.60-4.77L221.60-4.77Q223.10-6.72 223.68-10.18L223.68-10.18L227.07-28.93L227.07-28.93Q225.73-30.08 224.16-30.08L224.16-30.08L224.16-30.08Q222.59-30.08 221.66-29.57L221.66-29.57L221.66-29.57Q220.74-29.06 220-27.90ZM289.98 1.28L289.98 1.28L289.98 1.28Q282.24 1.28 282.24-4.74L282.24-4.74L282.24-4.74Q282.24-7.36 283.36-12.45L283.36-12.45L283.36-12.45Q284.48-17.54 284.86-19.58L284.86-19.58L284.86-19.58Q285.76-24.26 285.76-25.73L285.76-25.73L285.76-25.73Q285.76-28.99 283.33-28.99L283.33-28.99L283.33-28.99Q281.73-28.99 280.19-26.78L280.19-26.78L280.19-26.78Q278.66-24.58 277.95-20.16L277.95-20.16L273.98 0L261.50 1.28L264.96-16.13L264.96-16.13Q265.54-19.01 266.05-22.27L266.05-22.27L266.05-22.27Q266.56-25.54 266.56-26.05L266.56-26.05L266.56-26.05Q266.56-28.99 264.38-28.99L264.38-28.99L264.38-28.99Q262.91-28.99 261.31-26.82L261.31-26.82L261.31-26.82Q259.71-24.64 258.82-20.16L258.82-20.16L254.91 0L242.30 1.28L249.02-32.64L259.46-33.92L258.37-27.46L258.37-27.46Q260.03-30.91 263.10-32.42L263.10-32.42L263.10-32.42Q266.18-33.92 270.98-33.92L270.98-33.92L270.98-33.92Q273.73-33.92 275.52-32.58L275.52-32.58L275.52-32.58Q277.31-31.23 277.89-29.06L277.89-29.06L277.89-29.06Q278.98-31.30 281.76-32.61L281.76-32.61L281.76-32.61Q284.54-33.92 287.97-33.92L287.97-33.92L287.97-33.92Q291.39-33.92 293.09-33.18L293.09-33.18L293.09-33.18Q294.78-32.45 295.81-31.23L295.81-31.23L295.81-31.23Q297.54-28.99 297.54-24.90L297.54-24.90L297.54-24.90Q297.54-20.86 295.81-12.48L295.81-12.48L295.81-12.48Q294.91-8.38 294.91-6.88L294.91-6.88L294.91-6.88Q294.91-5.38 295.78-4.48L295.78-4.48L295.78-4.48Q296.64-3.58 297.92-3.46L297.92-3.46L297.92-3.46Q297.28-1.28 295.07 0L295.07 0L295.07 0Q292.86 1.28 289.98 1.28Z" fill="#f00" stroke="#0f0" stroke-width="1.8"></path></g></g><g><g transform="translate(100.49501430988312, 107.02999877929688)"><path d="M16.45-3.52L16.45-3.52L16.45-3.52Q14.46 1.28 8.13 1.28L8.13 1.28L8.13 1.28Q4.86 1.28 2.82-0.96L2.82-0.96L2.82-0.96Q1.09-2.94 1.09-4.93L1.09-4.93L1.09-4.93Q1.09-10.11 3.46-20.22L3.46-20.22L5.82-32.64L18.82-33.92L14.91-13.70L14.91-13.70Q13.82-8.96 13.82-7.30L13.82-7.30L13.82-7.30Q13.82-3.65 16.45-3.52ZM6.98-41.54L6.98-41.54L6.98-41.54Q6.98-44.03 9.06-45.38L9.06-45.38L9.06-45.38Q11.14-46.72 14.14-46.72L14.14-46.72L14.14-46.72Q17.15-46.72 18.98-45.38L18.98-45.38L18.98-45.38Q20.80-44.03 20.80-41.54L20.80-41.54L20.80-41.54Q20.80-39.04 18.78-37.76L18.78-37.76L18.78-37.76Q16.77-36.48 13.76-36.48L13.76-36.48L13.76-36.48Q10.75-36.48 8.86-37.76L8.86-37.76L8.86-37.76Q6.98-39.04 6.98-41.54ZM35.84 1.28L35.84 1.28L35.84 1.28Q21.76 1.28 21.76-11.97L21.76-11.97L21.76-11.97Q21.76-21.38 26.94-27.46L26.94-27.46L26.94-27.46Q32.45-33.92 41.98-33.92L41.98-33.92L41.98-33.92Q48.90-33.92 52.42-30.72L52.42-30.72L52.42-30.72Q55.94-27.52 55.94-20.80L55.94-20.80L55.94-20.80Q55.94-10.56 50.43-4.61L50.43-4.61L50.43-4.61Q45.06 1.28 35.84 1.28ZM37.50-26.56L37.50-26.56L37.50-26.56Q36.74-24.83 36.13-22.24L36.13-22.24L36.13-22.24Q35.52-19.65 34.75-15.55L34.75-15.55L34.75-15.55Q33.98-11.46 33.98-6.40L33.98-6.40L33.98-6.40Q33.98-4.74 34.53-3.65L34.53-3.65L34.53-3.65Q35.07-2.56 36.54-2.56L36.54-2.56L36.54-2.56Q38.02-2.56 38.94-3.26L38.94-3.26L38.94-3.26Q39.87-3.97 40.58-5.63L40.58-5.63L40.58-5.63Q41.86-8.58 42.88-14.05L42.88-14.05L42.88-14.05Q43.90-19.52 44-21.89L44-21.89L44-21.89Q44.10-24.26 44.10-26.02L44.10-26.02L44.10-26.02Q44.10-27.78 43.58-28.93L43.58-28.93L43.58-28.93Q43.07-30.08 41.63-30.08L41.63-30.08L41.63-30.08Q40.19-30.08 39.23-29.18L39.23-29.18L39.23-29.18Q38.27-28.29 37.50-26.56ZM55.04 9.54L55.04 9.54L55.04 9.54Q55.04 8.38 55.62 6.72L55.62 6.72L76.54-51.07L76.54-51.07Q77.70-51.26 79.97-51.26L79.97-51.26L79.97-51.26Q82.24-51.26 83.62-50.66L83.62-50.66L83.62-50.66Q84.99-50.05 84.99-48.19L84.99-48.19L84.99-48.19Q84.99-46.59 83.97-43.65L83.97-43.65L63.62 12.54L63.62 12.54Q63.10 12.80 60.10 12.80L60.10 12.80L60.10 12.80Q55.04 12.80 55.04 9.54ZM101.25-22.46L101.25-22.46L101.25-22.46Q102.14-24.83 102.14-26.88L102.14-26.88L102.14-26.88Q102.14-30.66 99.07-30.66L99.07-30.66L99.07-30.66Q97.47-30.66 96.16-29.22L96.16-29.22L96.16-29.22Q94.85-27.78 94.85-25.98L94.85-25.98L94.85-25.98Q94.85-24.70 95.87-23.68L95.87-23.68L95.87-23.68Q97.34-22.27 101.12-19.97L101.12-19.97L101.12-19.97Q104.90-17.66 106.34-15.78L106.34-15.78L106.34-15.78Q107.78-13.89 107.78-11.30L107.78-11.30L107.78-11.30Q107.78-8.70 106.53-6.34L106.53-6.34L106.53-6.34Q105.28-3.97 103.04-2.30L103.04-2.30L103.04-2.30Q98.24 1.28 90.56 1.28L90.56 1.28L90.56 1.28Q86.40 1.28 83.20-0.90L83.20-0.90L83.20-0.90Q80-3.01 80-5.50L80-5.50L80-5.50Q80-8 81.82-9.47L81.82-9.47L81.82-9.47Q83.65-10.94 86.34-10.94L86.34-10.94L86.34-10.94Q89.02-10.94 90.69-9.92L90.69-9.92L90.69-9.92Q89.86-7.81 89.86-6.40L89.86-6.40L89.86-6.40Q89.86-2.18 93.44-2.18L93.44-2.18L93.44-2.18Q94.98-2.18 96-3.14L96-3.14L96-3.14Q97.02-4.10 97.02-5.76L97.02-5.76L97.02-5.76Q97.02-9.02 91.52-12.48L91.52-12.48L91.52-12.48Q87.04-15.42 86.02-16.58L86.02-16.58L86.02-16.58Q84.29-18.62 84.29-21.18L84.29-21.18L84.29-21.18Q84.29-23.74 85.50-26.18L85.50-26.18L85.50-26.18Q86.72-28.61 88.96-30.34L88.96-30.34L88.96-30.34Q93.63-33.92 101.76-33.92L101.76-33.92L101.76-33.92Q105.92-33.92 108.38-32.26L108.38-32.26L108.38-32.26Q110.85-30.59 110.85-27.78L110.85-27.78L110.85-27.78Q110.85-24.96 109.15-23.36L109.15-23.36L109.15-23.36Q107.46-21.76 104.38-21.76L104.38-21.76L104.38-21.76Q102.27-21.76 101.25-22.46ZM114.24-6.40L114.24-6.40L114.24-6.40Q114.24-8.13 115.14-12.48L115.14-12.48L118.53-29.76L114.75-29.76L115.01-31.68L115.01-31.68Q122.69-33.98 130.11-39.62L130.11-39.62L133.18-39.62L131.65-32.64L136.64-32.64L136.06-29.76L131.14-29.76L127.87-12.48L127.87-12.48Q127.04-8.51 127.04-7.17L127.04-7.17L127.04-7.17Q127.04-4.10 129.73-3.46L129.73-3.46L129.73-3.46Q129.09-1.28 126.78 0L126.78 0L126.78 0Q124.48 1.28 121.22 1.28L121.22 1.28L121.22 1.28Q117.95 1.28 116.10-0.77L116.10-0.77L116.10-0.77Q114.24-2.82 114.24-6.40ZM156.35-17.98L156.35-17.98L156.35-17.98Q158.66-22.08 158.66-26.24L158.66-26.24L158.66-26.24Q158.66-28.99 156.67-28.99L156.67-28.99L156.67-28.99Q155.14-28.99 153.54-26.37L153.54-26.37L153.54-26.37Q151.87-23.74 151.36-20.35L151.36-20.35L148.03 0L134.78 1.28L141.31-32.64L151.87-33.92L150.72-27.46L150.72-27.46Q153.86-33.92 160.90-33.92L160.90-33.92L160.90-33.92Q164.61-33.92 166.62-32L166.62-32L166.62-32Q168.64-30.08 168.64-26.14L168.64-26.14L168.64-26.14Q168.64-22.21 166.05-19.71L166.05-19.71L166.05-19.71Q163.46-17.22 159.04-17.22L159.04-17.22L159.04-17.22Q157.12-17.22 156.35-17.98ZM195.58-10.82L195.58-10.82L195.58-10.82Q197.18-9.73 197.18-7.33L197.18-7.33L197.18-7.33Q197.18-4.93 195.97-3.39L195.97-3.39L195.97-3.39Q194.75-1.86 192.77-0.83L192.77-0.83L192.77-0.83Q188.67 1.28 184.26 1.28L184.26 1.28L184.26 1.28Q179.84 1.28 177.25 0.32L177.25 0.32L177.25 0.32Q174.66-0.64 172.93-2.43L172.93-2.43L172.93-2.43Q169.54-5.82 169.54-12.03L169.54-12.03L169.54-12.03Q169.54-21.70 174.78-27.58L174.78-27.58L174.78-27.58Q180.42-33.92 190.21-33.92L190.21-33.92L190.21-33.92Q196.29-33.92 199.30-31.36L199.30-31.36L199.30-31.36Q201.54-29.44 201.54-26.30L201.54-26.30L201.54-26.30Q201.54-15.04 182.08-15.04L182.08-15.04L182.08-15.04Q181.82-13.38 181.82-11.97L181.82-11.97L181.82-11.97Q181.82-9.02 183.14-7.90L183.14-7.90L183.14-7.90Q184.45-6.78 186.88-6.78L186.88-6.78L186.88-6.78Q189.31-6.78 191.90-7.90L191.90-7.90L191.90-7.90Q194.50-9.02 195.58-10.82ZM182.53-17.79L182.53-17.79L182.53-17.79Q187.07-17.79 189.70-20.61L189.70-20.61L189.70-20.61Q192.32-23.30 192.32-27.58L192.32-27.58L192.32-27.58Q192.32-29.06 191.78-29.86L191.78-29.86L191.78-29.86Q191.23-30.66 190.14-30.66L190.14-30.66L190.14-30.66Q189.06-30.66 188.13-30.24L188.13-30.24L188.13-30.24Q187.20-29.82 186.24-28.42L186.24-28.42L186.24-28.42Q183.87-25.22 182.53-17.79ZM206.50-1.92L206.50-1.92L206.50-1.92Q204.99-3.58 204.32-6.21L204.32-6.21L204.32-6.21Q203.65-8.83 203.65-13.12L203.65-13.12L203.65-13.12Q203.65-17.41 205.12-21.31L205.12-21.31L205.12-21.31Q206.59-25.22 209.28-28.03L209.28-28.03L209.28-28.03Q214.78-33.92 223.87-33.92L223.87-33.92L223.87-33.92Q227.14-33.92 229.50-32.83L229.50-32.83L240.45-33.92L235.71-8.96L235.71-8.96Q235.52-8.19 235.52-6.78L235.52-6.78L235.52-6.78Q235.52-5.38 236.38-4.48L236.38-4.48L236.38-4.48Q237.25-3.58 238.53-3.46L238.53-3.46L238.53-3.46Q237.89-1.28 235.55 0L235.55 0L235.55 0Q233.22 1.28 230.59 1.28L230.59 1.28L230.59 1.28Q227.97 1.28 226.21 0.29L226.21 0.29L226.21 0.29Q224.45-0.70 223.94-2.37L223.94-2.37L223.94-2.37Q222.91-0.77 220.74 0.26L220.74 0.26L220.74 0.26Q218.56 1.28 215.65 1.28L215.65 1.28L215.65 1.28Q212.74 1.28 210.37 0.51L210.37 0.51L210.37 0.51Q208-0.26 206.50-1.92ZM220-27.90L220-27.90L220-27.90Q219.26-26.75 218.62-24.80L218.62-24.80L218.62-24.80Q217.98-22.85 216.93-17.63L216.93-17.63L216.93-17.63Q215.87-12.42 215.87-8.70L215.87-8.70L215.87-8.70Q215.87-4.99 216.45-3.90L216.45-3.90L216.45-3.90Q217.02-2.82 218.05-2.82L218.05-2.82L218.05-2.82Q220.10-2.82 221.60-4.77L221.60-4.77L221.60-4.77Q223.10-6.72 223.68-10.18L223.68-10.18L227.07-28.93L227.07-28.93Q225.73-30.08 224.16-30.08L224.16-30.08L224.16-30.08Q222.59-30.08 221.66-29.57L221.66-29.57L221.66-29.57Q220.74-29.06 220-27.90ZM289.98 1.28L289.98 1.28L289.98 1.28Q282.24 1.28 282.24-4.74L282.24-4.74L282.24-4.74Q282.24-7.36 283.36-12.45L283.36-12.45L283.36-12.45Q284.48-17.54 284.86-19.58L284.86-19.58L284.86-19.58Q285.76-24.26 285.76-25.73L285.76-25.73L285.76-25.73Q285.76-28.99 283.33-28.99L283.33-28.99L283.33-28.99Q281.73-28.99 280.19-26.78L280.19-26.78L280.19-26.78Q278.66-24.58 277.95-20.16L277.95-20.16L273.98 0L261.50 1.28L264.96-16.13L264.96-16.13Q265.54-19.01 266.05-22.27L266.05-22.27L266.05-22.27Q266.56-25.54 266.56-26.05L266.56-26.05L266.56-26.05Q266.56-28.99 264.38-28.99L264.38-28.99L264.38-28.99Q262.91-28.99 261.31-26.82L261.31-26.82L261.31-26.82Q259.71-24.64 258.82-20.16L258.82-20.16L254.91 0L242.30 1.28L249.02-32.64L259.46-33.92L258.37-27.46L258.37-27.46Q260.03-30.91 263.10-32.42L263.10-32.42L263.10-32.42Q266.18-33.92 270.98-33.92L270.98-33.92L270.98-33.92Q273.73-33.92 275.52-32.58L275.52-32.58L275.52-32.58Q277.31-31.23 277.89-29.06L277.89-29.06L277.89-29.06Q278.98-31.30 281.76-32.61L281.76-32.61L281.76-32.61Q284.54-33.92 287.97-33.92L287.97-33.92L287.97-33.92Q291.39-33.92 293.09-33.18L293.09-33.18L293.09-33.18Q294.78-32.45 295.81-31.23L295.81-31.23L295.81-31.23Q297.54-28.99 297.54-24.90L297.54-24.90L297.54-24.90Q297.54-20.86 295.81-12.48L295.81-12.48L295.81-12.48Q294.91-8.38 294.91-6.88L294.91-6.88L294.91-6.88Q294.91-5.38 295.78-4.48L295.78-4.48L295.78-4.48Q296.64-3.58 297.92-3.46L297.92-3.46L297.92-3.46Q297.28-1.28 295.07 0L295.07 0L295.07 0Q292.86 1.28 289.98 1.28Z" fill="none" stroke="#511281" stroke-width="2.1"></path></g></g></g><style>text {
  font-size: 64px;
  font-family: Arial Black;
  dominant-baseline: central;
  text-anchor: middle;
}</style></svg>